<svg width="640" height="320" viewBox="0 0 640 320" fill="none" xmlns="http://www.w3.org/2000/svg">
  <rect width="320" height="320" fill="#0B0F1A"/>
  <rect x="320" width="320" height="320" fill="#FFFFFF"/>

  <g transform="translate(64 48)">
    <rect width="192" height="192" rx="36" fill="#0B0F1A" stroke="#FFFFFF" stroke-width="2"/>
    <g transform="translate(36 32)">
      <path d="M15 59C15 49.1 23.1 41 33 41C36.5 41 39.8 42 42.6 43.7C46.4 36.7 53.8 32 62.2 32C74.3 32 84.1 41.8 84.1 53.9C92.4 54.2 99 61 99 69.3C99 77.8 92.1 84.7 83.6 84.7H33.8C23.4 84.7 15 76.3 15 65.9V59Z" fill="none" stroke="#FFFFFF" stroke-width="7" stroke-linecap="round" stroke-linejoin="round"/>
    </g>
  </g>

  <g transform="translate(384 48)">
    <rect width="192" height="192" rx="36" fill="#FFFFFF" stroke="#111111" stroke-width="2"/>
    <g transform="translate(36 32)">
      <path d="M15 59C15 49.1 23.1 41 33 41C36.5 41 39.8 42 42.6 43.7C46.4 36.7 53.8 32 62.2 32C74.3 32 84.1 41.8 84.1 53.9C92.4 54.2 99 61 99 69.3C99 77.8 92.1 84.7 83.6 84.7H33.8C23.4 84.7 15 76.3 15 65.9V59Z" fill="none" stroke="#111111" stroke-width="7" stroke-linecap="round" stroke-linejoin="round"/>
    </g>
  </g>
</svg>
